# xmcd
# 
# Track frame offsets:
#     150
#     20720
#     45405
#     70877
#     87085
#     110440
#     132605
#     157665
#     176920
#     204562
# 
# Disc length: 3132
# 
# Revision: 1801675124
# Processed by: cddbd v1.5.2PL0 Copyright (c) Steve Scherf et al.
# Submitted via: fre:ac v1.0.31
# 
DISCID=840c3a0a
DTITLE=Ngọc Lan - The Best Selection Of Ngọc Lan
DYEAR=1995
DGENRE=Pop
TTITLE0=Tình Đầu - Hoàng Trọng Anh
TTITLE1=Nghe Những Tàn Phai - Trịnh Công Sơn
TTITLE2=Trả Lại Anh -  Đức Quỳnh
TTITLE3=Mẹ Hiền Yêu Dấu
TTITLE4=Giáng Ngọc - Ngô Thụy Miên - Thơ Nguyên Sa
TTITLE5=Ai Nói Yêu Em Đêm Nay - Trần Thiện Thanh
TTITLE6=Sao Đành Xa Em - Marguerite Phạm
TTITLE7=Tình Sử Romeo Và Juliette - A Time For Us
TTITLE8=Bản Tình Cuối - Ngô Thụy Miên
TTITLE9=Phạm Đình Chương - thơ Thanh Tâm Tuyền
EXTD=
EXTT0=
EXTT1=
EXTT2=
EXTT3=
EXTT4=
EXTT5=
EXTT6=
EXTT7=
EXTT8=
EXTT9=
PLAYORDER=
